<svg xmlns="http://www.w3.org/2000/svg" xmlns:xlink="http://www.w3.org/1999/xlink" version="1.0" x="0" y="0" width="2400" height="756.2795443640749" viewBox="78.70143203735351 96.23031692504883 182.59713592529297 57.53936614990234" preserveAspectRatio="xMidYMid meet" color-interpolation-filters="sRGB"><g><defs><linearGradient id="92" x1="0%" y1="0%" x2="100%" y2="0%"><stop offset="0%" stop-color="#fa71cd"></stop> <stop offset="100%" stop-color="#9b59b6"></stop></linearGradient><linearGradient id="93" x1="0%" y1="0%" x2="100%" y2="0%"><stop offset="0%" stop-color="#f9d423"></stop> <stop offset="100%" stop-color="#f83600"></stop></linearGradient><linearGradient id="94" x1="0%" y1="0%" x2="100%" y2="0%"><stop offset="0%" stop-color="#0064d2"></stop> <stop offset="100%" stop-color="#1cb0f6"></stop></linearGradient><linearGradient id="95" x1="0%" y1="0%" x2="100%" y2="0%"><stop offset="0%" stop-color="#f00978"></stop> <stop offset="100%" stop-color="#3f51b1"></stop></linearGradient><linearGradient id="96" x1="0%" y1="0%" x2="100%" y2="0%"><stop offset="0%" stop-color="#7873f5"></stop> <stop offset="100%" stop-color="#ec77ab"></stop></linearGradient><linearGradient id="97" x1="0%" y1="0%" x2="100%" y2="0%"><stop offset="0%" stop-color="#f9d423"></stop> <stop offset="100%" stop-color="#e14fad"></stop></linearGradient><linearGradient id="98" x1="0%" y1="0%" x2="100%" y2="0%"><stop offset="0%" stop-color="#009efd"></stop> <stop offset="100%" stop-color="#2af598"></stop></linearGradient><linearGradient id="99" x1="0%" y1="0%" x2="100%" y2="0%"><stop offset="0%" stop-color="#ffcc00"></stop> <stop offset="100%" stop-color="#00b140"></stop></linearGradient><linearGradient id="100" x1="0%" y1="0%" x2="100%" y2="0%"><stop offset="0%" stop-color="#d51007"></stop> <stop offset="100%" stop-color="#ff8177"></stop></linearGradient><linearGradient id="102" x1="0%" y1="0%" x2="100%" y2="0%"><stop offset="0%" stop-color="#a2b6df"></stop> <stop offset="100%" stop-color="#0c3483"></stop></linearGradient><linearGradient id="103" x1="0%" y1="0%" x2="100%" y2="0%"><stop offset="0%" stop-color="#7ac5d8"></stop> <stop offset="100%" stop-color="#eea2a2"></stop></linearGradient><linearGradient id="104" x1="0%" y1="0%" x2="100%" y2="0%"><stop offset="0%" stop-color="#00ecbc"></stop> <stop offset="100%" stop-color="#007adf"></stop></linearGradient><linearGradient id="105" x1="0%" y1="0%" x2="100%" y2="0%"><stop offset="0%" stop-color="#b88746"></stop> <stop offset="100%" stop-color="#fdf5a6"></stop></linearGradient></defs><g fill="#020f40" class="iconlinesvg-g iconlinesvg" transform="translate(80.4916000366211,98.0204849243164)"><g class="tp-name" transform="translate(0,0)"><g transform="translate(0, 0)"><g><g class="imagesvg"><g><rect fill="#020f40" fill-opacity="0" stroke-width="2" x="0" y="0" width="35.69044895034872" height="38.691350061086595" class="image-rect"></rect> <svg x="0" y="0" width="35.69044895034872" height="38.691350061086595" filtersec="colorsb1709381113" class="image-svg-svg primary" style="overflow: visible;"><svg xmlns="http://www.w3.org/2000/svg" viewBox="0 0 56.61000061035156 61.37000274658203"><g><g><path fill="#FFA500" d="M28.21 61.18l28.4-41.24V0l-28.3 40.51L0 0v20.22l28.21 40.96-.03.01.13.18.05-.09-.15-.1z"></path><path fill="#020f40" d="M0 25.51v35.86h12.26V43.32L0 25.51zM44.18 43.28v18.09h12.43V25.23L44.18 43.28z"></path></g></g></svg></svg> </g></g></g></g><g transform="translate(41, 10.447919979865647)"><g fill="#020f40" transform="scale(1)"><path d="M4.84 0L1.88 0L1.88-20.94L4.84-20.94L4.84 0ZM1.88-24.84L1.88-27.80L4.84-27.80L4.84-24.84L1.88-24.84Z" transform="translate(-1.8770993834681502, 27.7955101013553)"></path></g></g><g transform="translate(47, 10.447919979865647)"><g fill="#020f40" transform="scale(1)"><path d="M6.21-2.96L6.21-2.96L23.17-2.96L23.17 0L6.21 0Q4.40 0 3.12-1.28Q1.84-2.56 1.84-4.37L1.84-4.37L1.84-16.57Q1.84-18.37 3.12-19.66Q4.40-20.94 6.21-20.94L6.21-20.94L23.10-20.94L23.10-17.98L6.21-17.98Q5.63-17.98 5.22-17.56Q4.80-17.15 4.80-16.57L4.80-16.57L4.80-4.37Q4.80-3.79 5.22-3.38Q5.63-2.96 6.21-2.96Z" transform="translate(-1.841001318401455, 27.7955101013553)"></path></g></g><g transform="translate(72, 10.447919979865647)"><g fill="#020f40" transform="scale(1)"><path d="M6.24-20.94L6.24-20.94L18.01-20.94L18.01-17.98L6.24-17.98Q5.67-17.98 5.25-17.56Q4.84-17.15 4.84-16.57L4.84-16.57L4.84 0L1.88 0L1.88-16.57Q1.88-18.37 3.16-19.66Q4.44-20.94 6.24-20.94Z" transform="translate(-1.8770993834681502, 27.7955101013553)"></path></g></g><g transform="translate(92, 10.447919979865647)"><g fill="#020f40" transform="scale(1)"><path d="M6.21-20.94L6.21-20.94L18.77-20.94Q20.61-20.94 21.89-19.66Q23.17-18.37 23.17-16.57L23.17-16.57L23.17-4.37Q23.17-2.56 21.89-1.28Q20.61 0 18.77 0L18.77 0L6.21 0Q4.40 0 3.12-1.28Q1.84-2.56 1.84-4.37L1.84-4.37L1.84-16.57Q1.84-18.37 3.12-19.66Q4.40-20.94 6.21-20.94ZM18.77-17.98L18.77-17.98L6.21-17.98Q5.63-17.98 5.22-17.56Q4.80-17.15 4.80-16.57L4.80-16.57L4.80-4.37Q4.80-3.79 5.22-3.38Q5.63-2.96 6.21-2.96L6.21-2.96L18.77-2.96Q19.35-2.96 19.76-3.38Q20.18-3.79 20.18-4.37L20.18-4.37L20.18-16.57Q20.18-17.15 19.76-17.56Q19.35-17.98 18.77-17.98Z" transform="translate(-1.8410013184014546, 27.7955101013553)"></path></g></g><g transform="translate(117, 10.447919979865647)"><g fill="#020f40" transform="scale(1)"><path d="M1.95-20.94L18.92-20.94Q20.72-20.94 22.00-19.66Q23.28-18.37 23.28-16.57L23.28-16.57L23.28 0L20.32 0L20.32-16.57Q20.32-17.15 19.91-17.56Q19.49-17.98 18.92-17.98L18.92-17.98L6.35-17.98Q5.78-17.98 5.34-17.56Q4.91-17.15 4.91-16.57L4.91-16.57L4.91 0L1.95 0L1.95-20.94Z" transform="translate(-1.9492955136015406, 27.7955101013553)"></path></g></g><g transform="translate(142, 10.447919979865647)"><g fill="#020f40" transform="scale(1)"><path d="M6.21-20.94L18.77-20.94Q20.61-20.94 21.89-19.66Q23.17-18.37 23.17-16.57L23.17-16.57L23.17-8.99L4.80-8.99L4.80-4.37Q4.80-3.79 5.22-3.38Q5.63-2.96 6.21-2.96L6.21-2.96L23.17-2.96L23.17 0L6.21 0Q4.40 0 3.12-1.28Q1.84-2.56 1.84-4.37L1.84-4.37L1.84-16.57Q1.84-18.37 3.12-19.66Q4.40-20.94 6.21-20.94L6.21-20.94ZM4.80-16.57L4.80-11.95L20.18-11.95L20.18-16.57Q20.18-17.15 19.76-17.56Q19.35-17.98 18.77-17.98L18.77-17.98L6.21-17.98Q5.63-17.98 5.22-17.56Q4.80-17.15 4.80-16.57L4.80-16.57Z" transform="translate(-1.841001318401455, 27.7955101013553)"></path></g></g><g transform="translate(167, 10.447919979865647)"><g fill="#020f40" transform="scale(1)"><path d="M13.93-20.94L13.93-17.98L4.87-17.98L4.87-4.37Q4.87-3.79 5.29-3.38Q5.70-2.96 6.28-2.96L6.28-2.96L13.93-2.96L13.93 0L6.28 0Q4.44 0 3.18-1.28Q1.91-2.56 1.91-4.37L1.91-4.37L1.91-27.80L4.87-27.80L4.87-20.94L13.93-20.94Z" transform="translate(-1.913197448534845, 27.7955101013553)"></path></g></g></g> <g fill-rule="" class="tp-slogan" fill="#020f40" transform="translate(5,46.691349029541016)"><rect x="0" height="1" y="3.132999897003174" width="41.44459915161133"></rect> <rect height="1" y="3.132999897003174" width="41.44459915161133" x="127.57220077514648"></rect> <g transform="translate(44.44459915161133,0)"><g transform="scale(0.8399999999999999)"><path d="M9.25-7.20L9.25-7.20L9.25-6.86L8.28-6.86L8.28-7.20Q8.28-7.39 8.14-7.53Q8.00-7.67 7.81-7.67L7.81-7.67L2.05-7.67Q1.86-7.67 1.72-7.53Q1.58-7.39 1.58-7.20L1.58-7.20L1.58-5.27Q1.58-5.08 1.72-4.94Q1.86-4.81 2.05-4.81L2.05-4.81L7.81-4.81Q8.41-4.81 8.83-4.39Q9.25-3.97 9.25-3.37L9.25-3.37L9.25-1.44Q9.25-0.84 8.83-0.42Q8.41 0 7.81 0L7.81 0L2.05 0Q1.45 0 1.03-0.42Q0.61-0.84 0.61-1.44L0.61-1.44L0.61-1.78L1.58-1.78L1.58-1.44Q1.58-1.25 1.72-1.11Q1.86-0.97 2.05-0.97L2.05-0.97L7.81-0.97Q8.00-0.97 8.14-1.11Q8.28-1.25 8.28-1.44L8.28-1.44L8.28-3.37Q8.28-3.56 8.14-3.70Q8.00-3.83 7.81-3.83L7.81-3.83L2.05-3.83Q1.45-3.83 1.03-4.25Q0.61-4.67 0.61-5.27L0.61-5.27L0.61-7.20Q0.61-7.80 1.03-8.22Q1.45-8.64 2.05-8.64L2.05-8.64L7.81-8.64Q8.41-8.64 8.83-8.22Q9.25-7.80 9.25-7.20ZM13.95-8.64L13.95-8.64L19.71-8.64Q20.31-8.64 20.73-8.22Q21.15-7.80 21.15-7.20L21.15-7.20L21.15-1.44Q21.15-0.84 20.73-0.42Q20.31 0 19.71 0L19.71 0L13.95 0Q13.35 0 12.93-0.42Q12.51-0.84 12.51-1.44L12.51-1.44L12.51-7.20Q12.51-7.80 12.93-8.22Q13.35-8.64 13.95-8.64ZM13.95-0.97L13.95-0.97L19.71-0.97Q19.90-0.97 20.04-1.11Q20.18-1.25 20.18-1.44L20.18-1.44L20.18-7.20Q20.18-7.39 20.04-7.53Q19.90-7.67 19.71-7.67L19.71-7.67L13.95-7.67Q13.76-7.67 13.62-7.53Q13.48-7.39 13.48-7.20L13.48-7.20L13.48-1.44Q13.48-1.25 13.62-1.11Q13.76-0.97 13.95-0.97ZM33.12 0L24.48 0L24.48-8.65L25.46-8.65L25.46-0.97L33.12-0.97L33.12 0ZM43.46-1.44L43.46-1.44L43.46-8.64L44.44-8.64L44.44-1.44Q44.44-0.84 44.02-0.42Q43.60 0 43.00 0L43.00 0L37.24 0Q36.64 0 36.22-0.42Q35.80-0.84 35.80-1.44L35.80-1.44L35.80-8.64L36.77-8.64L36.77-1.44Q36.77-1.25 36.91-1.11Q37.04-0.97 37.24-0.97L37.24-0.97L43.00-0.97Q43.19-0.97 43.33-1.11Q43.46-1.25 43.46-1.44ZM47.32-7.67L47.32-8.64L55.96-8.64L55.96-7.67L52.14-7.67L52.14 0L51.16 0L51.16-7.67L47.32-7.67ZM59.85 0L58.88 0L58.88-8.64L59.85-8.64L59.85 0ZM64.92-8.64L64.92-8.64L70.68-8.64Q71.28-8.64 71.70-8.22Q72.12-7.80 72.12-7.20L72.12-7.20L72.12-1.44Q72.12-0.84 71.70-0.42Q71.28 0 70.68 0L70.68 0L64.92 0Q64.32 0 63.90-0.42Q63.48-0.84 63.48-1.44L63.48-1.44L63.48-7.20Q63.48-7.80 63.90-8.22Q64.32-8.64 64.92-8.64ZM64.92-0.97L64.92-0.97L70.68-0.97Q70.87-0.97 71.01-1.11Q71.15-1.25 71.15-1.44L71.15-1.44L71.15-7.20Q71.15-7.39 71.01-7.53Q70.87-7.67 70.68-7.67L70.68-7.67L64.92-7.67Q64.73-7.67 64.59-7.53Q64.45-7.39 64.45-7.20L64.45-7.20L64.45-1.44Q64.45-1.25 64.59-1.11Q64.73-0.97 64.92-0.97ZM76.77-8.64L83.11-1.10L83.11-8.64L84.08-8.64L84.08 0L82.75 0L76.41-7.54L76.41 0L75.44 0L75.44-8.64L76.77-8.64ZM96.00-7.20L96.00-7.20L96.00-6.86L95.03-6.86L95.03-7.20Q95.03-7.39 94.89-7.53Q94.76-7.67 94.56-7.67L94.56-7.67L88.80-7.67Q88.61-7.67 88.47-7.53Q88.34-7.39 88.34-7.20L88.34-7.20L88.34-5.27Q88.34-5.08 88.47-4.94Q88.61-4.81 88.80-4.81L88.80-4.81L94.56-4.81Q95.16-4.81 95.58-4.39Q96.00-3.97 96.00-3.37L96.00-3.37L96.00-1.44Q96.00-0.84 95.58-0.42Q95.16 0 94.56 0L94.56 0L88.80 0Q88.20 0 87.78-0.42Q87.36-0.84 87.36-1.44L87.36-1.44L87.36-1.78L88.34-1.78L88.34-1.44Q88.34-1.25 88.47-1.11Q88.61-0.97 88.80-0.97L88.80-0.97L94.56-0.97Q94.76-0.97 94.89-1.11Q95.03-1.25 95.03-1.44L95.03-1.44L95.03-3.37Q95.03-3.56 94.89-3.70Q94.76-3.83 94.56-3.83L94.56-3.83L88.80-3.83Q88.20-3.83 87.78-4.25Q87.36-4.67 87.36-5.27L87.36-5.27L87.36-7.20Q87.36-7.80 87.78-8.22Q88.20-8.64 88.80-8.64L88.80-8.64L94.56-8.64Q95.16-8.64 95.58-8.22Q96.00-7.80 96.00-7.20Z" transform="translate(-0.612, 8.652000000000001)"></path></g></g></g></g><defs v-gra="od"></defs></g></svg>